<mxfile host="app.diagrams.net" modified="2023-01-10T08:52:36.401Z" agent="5.0 (Windows NT 10.0; Win64; x64) AppleWebKit/537.36 (KHTML, like Gecko) Chrome/108.0.0.0 Safari/537.36" version="20.7.4" etag="jmYaXgs6jFNqyucP02hD" type="github">
  <diagram id="b1adUCVvUvrfAhhOwFbU" name="Страница 1">
    <mxGraphModel dx="1500" dy="747" grid="1" gridSize="10" guides="1" tooltips="1" connect="1" arrows="1" fold="1" page="1" pageScale="1" pageWidth="827" pageHeight="1169" math="0" shadow="0">
      <root>
        <mxCell id="0" />
        <mxCell id="1" parent="0" />
        <mxCell id="M7JdP0_G7m8qQyVJce-b-4" style="edgeStyle=orthogonalEdgeStyle;rounded=0;orthogonalLoop=1;jettySize=auto;html=1;entryX=0.5;entryY=0;entryDx=0;entryDy=0;fontSize=10;" edge="1" parent="1" source="M7JdP0_G7m8qQyVJce-b-1" target="M7JdP0_G7m8qQyVJce-b-2">
          <mxGeometry relative="1" as="geometry" />
        </mxCell>
        <mxCell id="M7JdP0_G7m8qQyVJce-b-13" style="edgeStyle=orthogonalEdgeStyle;rounded=0;orthogonalLoop=1;jettySize=auto;html=1;entryX=1.016;entryY=0.588;entryDx=0;entryDy=0;entryPerimeter=0;fontSize=14;" edge="1" parent="1" source="M7JdP0_G7m8qQyVJce-b-1" target="M7JdP0_G7m8qQyVJce-b-12">
          <mxGeometry relative="1" as="geometry" />
        </mxCell>
        <mxCell id="M7JdP0_G7m8qQyVJce-b-18" style="edgeStyle=orthogonalEdgeStyle;rounded=0;orthogonalLoop=1;jettySize=auto;html=1;entryX=0;entryY=0.5;entryDx=0;entryDy=0;fontSize=14;" edge="1" parent="1" source="M7JdP0_G7m8qQyVJce-b-1" target="M7JdP0_G7m8qQyVJce-b-15">
          <mxGeometry relative="1" as="geometry" />
        </mxCell>
        <mxCell id="M7JdP0_G7m8qQyVJce-b-1" value="звичайний користувач" style="shape=umlActor;verticalLabelPosition=bottom;verticalAlign=top;html=1;outlineConnect=0;" vertex="1" parent="1">
          <mxGeometry x="399" y="120" width="30" height="60" as="geometry" />
        </mxCell>
        <mxCell id="M7JdP0_G7m8qQyVJce-b-9" style="edgeStyle=orthogonalEdgeStyle;rounded=0;orthogonalLoop=1;jettySize=auto;html=1;exitX=0.5;exitY=1;exitDx=0;exitDy=0;fontSize=10;entryX=0.5;entryY=0;entryDx=0;entryDy=0;" edge="1" parent="1" source="M7JdP0_G7m8qQyVJce-b-2" target="M7JdP0_G7m8qQyVJce-b-7">
          <mxGeometry relative="1" as="geometry">
            <Array as="points">
              <mxPoint x="414" y="340" />
              <mxPoint x="480" y="340" />
              <mxPoint x="480" y="370" />
            </Array>
          </mxGeometry>
        </mxCell>
        <mxCell id="M7JdP0_G7m8qQyVJce-b-36" style="edgeStyle=orthogonalEdgeStyle;rounded=0;orthogonalLoop=1;jettySize=auto;html=1;exitX=0.5;exitY=1;exitDx=0;exitDy=0;entryX=0.5;entryY=0;entryDx=0;entryDy=0;fontSize=14;" edge="1" parent="1" source="M7JdP0_G7m8qQyVJce-b-2" target="M7JdP0_G7m8qQyVJce-b-6">
          <mxGeometry relative="1" as="geometry">
            <Array as="points">
              <mxPoint x="414" y="340" />
              <mxPoint x="355" y="340" />
            </Array>
          </mxGeometry>
        </mxCell>
        <mxCell id="M7JdP0_G7m8qQyVJce-b-2" value="Обрання теми із доступних&amp;nbsp;&lt;br&gt;&lt;span style=&quot;line-height: 107%; font-family: Calibri, sans-serif;&quot; lang=&quot;UK&quot;&gt;&lt;i style=&quot;&quot;&gt;&lt;font style=&quot;font-size: 10px;&quot;&gt;(Зміна теми в додатку на іншу із запропонованих)&lt;/font&gt;&lt;/i&gt;&lt;span style=&quot;font-size: 14pt;&quot;&gt;&amp;nbsp;&lt;/span&gt;&lt;/span&gt;" style="ellipse;whiteSpace=wrap;html=1;" vertex="1" parent="1">
          <mxGeometry x="324.5" y="240" width="179" height="80" as="geometry" />
        </mxCell>
        <mxCell id="M7JdP0_G7m8qQyVJce-b-6" value="Світла тема" style="ellipse;whiteSpace=wrap;html=1;fontSize=10;" vertex="1" parent="1">
          <mxGeometry x="310" y="380" width="90" height="40" as="geometry" />
        </mxCell>
        <mxCell id="M7JdP0_G7m8qQyVJce-b-7" value="Темна тема" style="ellipse;whiteSpace=wrap;html=1;fontSize=10;" vertex="1" parent="1">
          <mxGeometry x="435" y="380" width="90" height="40" as="geometry" />
        </mxCell>
        <mxCell id="M7JdP0_G7m8qQyVJce-b-12" value="Забеспечити комфортне користування додатком" style="ellipse;whiteSpace=wrap;html=1;fontSize=14;" vertex="1" parent="1">
          <mxGeometry x="160" y="70" width="150" height="80" as="geometry" />
        </mxCell>
        <mxCell id="M7JdP0_G7m8qQyVJce-b-15" value="Зробити додаток візуально приємним для себе" style="ellipse;whiteSpace=wrap;html=1;fontSize=14;" vertex="1" parent="1">
          <mxGeometry x="499" y="70" width="150" height="80" as="geometry" />
        </mxCell>
        <mxCell id="M7JdP0_G7m8qQyVJce-b-19" style="edgeStyle=orthogonalEdgeStyle;rounded=0;orthogonalLoop=1;jettySize=auto;html=1;entryX=0.5;entryY=0;entryDx=0;entryDy=0;fontSize=10;" edge="1" parent="1" source="M7JdP0_G7m8qQyVJce-b-22" target="M7JdP0_G7m8qQyVJce-b-26">
          <mxGeometry relative="1" as="geometry" />
        </mxCell>
        <mxCell id="M7JdP0_G7m8qQyVJce-b-20" style="edgeStyle=orthogonalEdgeStyle;rounded=0;orthogonalLoop=1;jettySize=auto;html=1;entryX=1.016;entryY=0.588;entryDx=0;entryDy=0;entryPerimeter=0;fontSize=14;" edge="1" parent="1" source="M7JdP0_G7m8qQyVJce-b-22" target="M7JdP0_G7m8qQyVJce-b-31">
          <mxGeometry relative="1" as="geometry" />
        </mxCell>
        <mxCell id="M7JdP0_G7m8qQyVJce-b-21" style="edgeStyle=orthogonalEdgeStyle;rounded=0;orthogonalLoop=1;jettySize=auto;html=1;entryX=0;entryY=0.5;entryDx=0;entryDy=0;fontSize=14;" edge="1" parent="1" source="M7JdP0_G7m8qQyVJce-b-22" target="M7JdP0_G7m8qQyVJce-b-32">
          <mxGeometry relative="1" as="geometry" />
        </mxCell>
        <mxCell id="M7JdP0_G7m8qQyVJce-b-35" style="edgeStyle=orthogonalEdgeStyle;rounded=0;orthogonalLoop=1;jettySize=auto;html=1;fontSize=14;" edge="1" parent="1" source="M7JdP0_G7m8qQyVJce-b-22" target="M7JdP0_G7m8qQyVJce-b-34">
          <mxGeometry relative="1" as="geometry" />
        </mxCell>
        <mxCell id="M7JdP0_G7m8qQyVJce-b-22" value="VIP користувач" style="shape=umlActor;verticalLabelPosition=bottom;verticalAlign=top;html=1;outlineConnect=0;" vertex="1" parent="1">
          <mxGeometry x="369" y="490" width="30" height="60" as="geometry" />
        </mxCell>
        <mxCell id="M7JdP0_G7m8qQyVJce-b-23" style="edgeStyle=orthogonalEdgeStyle;rounded=0;orthogonalLoop=1;jettySize=auto;html=1;exitX=0.5;exitY=1;exitDx=0;exitDy=0;fontSize=10;" edge="1" parent="1" source="M7JdP0_G7m8qQyVJce-b-26" target="M7JdP0_G7m8qQyVJce-b-27">
          <mxGeometry relative="1" as="geometry">
            <mxPoint x="180" y="760" as="targetPoint" />
            <Array as="points">
              <mxPoint x="384" y="710" />
              <mxPoint x="180" y="710" />
            </Array>
          </mxGeometry>
        </mxCell>
        <mxCell id="M7JdP0_G7m8qQyVJce-b-24" style="edgeStyle=orthogonalEdgeStyle;rounded=0;orthogonalLoop=1;jettySize=auto;html=1;exitX=0.5;exitY=1;exitDx=0;exitDy=0;fontSize=10;entryX=0.5;entryY=0;entryDx=0;entryDy=0;" edge="1" parent="1" source="M7JdP0_G7m8qQyVJce-b-26" target="M7JdP0_G7m8qQyVJce-b-28">
          <mxGeometry relative="1" as="geometry">
            <Array as="points">
              <mxPoint x="384" y="710" />
              <mxPoint x="280" y="710" />
              <mxPoint x="280" y="740" />
            </Array>
          </mxGeometry>
        </mxCell>
        <mxCell id="M7JdP0_G7m8qQyVJce-b-25" style="edgeStyle=orthogonalEdgeStyle;rounded=0;orthogonalLoop=1;jettySize=auto;html=1;exitX=0.5;exitY=1;exitDx=0;exitDy=0;entryX=0.5;entryY=0;entryDx=0;entryDy=0;fontSize=10;" edge="1" parent="1" source="M7JdP0_G7m8qQyVJce-b-26" target="M7JdP0_G7m8qQyVJce-b-29">
          <mxGeometry relative="1" as="geometry">
            <Array as="points">
              <mxPoint x="384" y="710" />
              <mxPoint x="505" y="710" />
            </Array>
          </mxGeometry>
        </mxCell>
        <mxCell id="M7JdP0_G7m8qQyVJce-b-26" value="Обрання теми із доступних&amp;nbsp;&lt;br&gt;&lt;span style=&quot;line-height: 107%; font-family: Calibri, sans-serif;&quot; lang=&quot;UK&quot;&gt;&lt;i style=&quot;&quot;&gt;&lt;font style=&quot;font-size: 10px;&quot;&gt;(Зміна теми в додатку на іншу із запропонованих)&lt;/font&gt;&lt;/i&gt;&lt;span style=&quot;font-size: 14pt;&quot;&gt;&amp;nbsp;&lt;/span&gt;&lt;/span&gt;" style="ellipse;whiteSpace=wrap;html=1;" vertex="1" parent="1">
          <mxGeometry x="294.5" y="610" width="179" height="80" as="geometry" />
        </mxCell>
        <mxCell id="M7JdP0_G7m8qQyVJce-b-27" value="Світла тема" style="ellipse;whiteSpace=wrap;html=1;fontSize=10;" vertex="1" parent="1">
          <mxGeometry x="130" y="740" width="90" height="40" as="geometry" />
        </mxCell>
        <mxCell id="M7JdP0_G7m8qQyVJce-b-28" value="Темна тема" style="ellipse;whiteSpace=wrap;html=1;fontSize=10;" vertex="1" parent="1">
          <mxGeometry x="234" y="745" width="90" height="40" as="geometry" />
        </mxCell>
        <mxCell id="M7JdP0_G7m8qQyVJce-b-29" value="Тема n" style="ellipse;whiteSpace=wrap;html=1;fontSize=10;" vertex="1" parent="1">
          <mxGeometry x="460" y="740" width="90" height="40" as="geometry" />
        </mxCell>
        <mxCell id="M7JdP0_G7m8qQyVJce-b-30" value="&lt;b style=&quot;font-size: 14px;&quot;&gt;. . .&lt;/b&gt;" style="text;html=1;align=center;verticalAlign=middle;resizable=0;points=[];autosize=1;strokeColor=none;fillColor=none;fontSize=14;" vertex="1" parent="1">
          <mxGeometry x="369" y="745" width="40" height="30" as="geometry" />
        </mxCell>
        <mxCell id="M7JdP0_G7m8qQyVJce-b-31" value="Забеспечити комфортне користування додатком" style="ellipse;whiteSpace=wrap;html=1;fontSize=14;" vertex="1" parent="1">
          <mxGeometry x="130" y="440" width="150" height="80" as="geometry" />
        </mxCell>
        <mxCell id="M7JdP0_G7m8qQyVJce-b-32" value="Зробити додаток візуально приємним для себе" style="ellipse;whiteSpace=wrap;html=1;fontSize=14;" vertex="1" parent="1">
          <mxGeometry x="469" y="440" width="150" height="80" as="geometry" />
        </mxCell>
        <mxCell id="M7JdP0_G7m8qQyVJce-b-34" value="Використання додаткового платного контенту" style="ellipse;whiteSpace=wrap;html=1;fontSize=14;" vertex="1" parent="1">
          <mxGeometry x="469" y="530" width="150" height="80" as="geometry" />
        </mxCell>
      </root>
    </mxGraphModel>
  </diagram>
</mxfile>
